{
    "asset" : {
        "generator" : "Khronos glTF Blender I/O v3.2.43",
        "version" : "2.0"
    },
    "extensionsUsed" : [
        "KHR_materials_transmission"
    ],
    "scene" : 0,
    "scenes" : [
        {
            "name" : "Scene",
            "nodes" : [
                0,
                2,
                4,
                6,
                8,
                10,
                12
            ]
        }
    ],
    "nodes" : [
        {
            "mesh" : 0,
            "name" : "Torus",
            "rotation" : [
                0.7071068286895752,
                0,
                0,
                0.7071068286895752
            ],
            "scale" : [
                0.6000000238418579,
                0.6000000238418579,
                0.6000000238418579
            ]
        },
        {
            "mesh" : 1,
            "name" : "Sphere"
        },
        {
            "children" : [
                1
            ],
            "name" : "Empty",
            "translation" : [
                0,
                0.75,
                0
            ]
        },
        {
            "mesh" : 2,
            "name" : "Cylinder",
            "scale" : [
                0.6388999819755554,
                0.5226650238037109,
                0.6388999819755554
            ]
        },
        {
            "children" : [
                3
            ],
            "name" : "Empty.001",
            "translation" : [
                0,
                0.7594847679138184,
                0
            ]
        },
        {
            "mesh" : 3,
            "name" : "Icosphere.002",
            "scale" : [
                0.22894300520420074,
                0.22894300520420074,
                0.22894302010536194
            ]
        },
        {
            "children" : [
                5
            ],
            "name" : "Empty.002",
            "translation" : [
                0,
                1.804814338684082,
                0
            ]
        },
        {
            "mesh" : 4,
            "name" : "Cube",
            "scale" : [
                0.3264789879322052,
                0.1305914968252182,
                0.16295050084590912
            ]
        },
        {
            "children" : [
                7
            ],
            "name" : "Empty.004",
            "translation" : [
                0,
                2.262700319290161,
                0
            ]
        },
        {
            "mesh" : 5,
            "name" : "Icosphere",
            "scale" : [
                0.8012999892234802,
                0.8012999892234802,
                0.801300048828125
            ]
        },
        {
            "children" : [
                9
            ],
            "name" : "Empty.005",
            "translation" : [
                0,
                2.52388334274292,
                0
            ]
        },
        {
            "mesh" : 6,
            "name" : "Icosphere.001",
            "scale" : [
                0.1282079964876175,
                0.1282079964876175,
                0.1282080113887787
            ]
        },
        {
            "children" : [
                11
            ],
            "name" : "Empty.006",
            "translation" : [
                0,
                4.12648344039917,
                0
            ]
        }
    ],
    "animations" : [
        {
            "channels" : [
                {
                    "sampler" : 0,
                    "target" : {
                        "node" : 1,
                        "path" : "translation"
                    }
                }
            ],
            "name" : "PanAction_Pan.001",
            "samplers" : [
                {
                    "input" : 27,
                    "interpolation" : "LINEAR",
                    "output" : 28
                }
            ]
        },
        {
            "channels" : [
                {
                    "sampler" : 0,
                    "target" : {
                        "node" : 3,
                        "path" : "translation"
                    }
                }
            ],
            "name" : "ConeAction_Cone.001",
            "samplers" : [
                {
                    "input" : 27,
                    "interpolation" : "LINEAR",
                    "output" : 29
                }
            ]
        },
        {
            "channels" : [
                {
                    "sampler" : 0,
                    "target" : {
                        "node" : 5,
                        "path" : "translation"
                    }
                }
            ],
            "name" : "Middle Small SphereAction_Middle Small Sphere.001",
            "samplers" : [
                {
                    "input" : 30,
                    "interpolation" : "LINEAR",
                    "output" : 31
                }
            ]
        },
        {
            "channels" : [
                {
                    "sampler" : 0,
                    "target" : {
                        "node" : 7,
                        "path" : "translation"
                    }
                }
            ],
            "name" : "RectangleAction_Rectangle.001",
            "samplers" : [
                {
                    "input" : 30,
                    "interpolation" : "LINEAR",
                    "output" : 32
                }
            ]
        },
        {
            "channels" : [
                {
                    "sampler" : 0,
                    "target" : {
                        "node" : 9,
                        "path" : "translation"
                    }
                }
            ],
            "name" : "Big SphereAction_Big Sphere.001",
            "samplers" : [
                {
                    "input" : 30,
                    "interpolation" : "LINEAR",
                    "output" : 33
                }
            ]
        },
        {
            "channels" : [
                {
                    "sampler" : 0,
                    "target" : {
                        "node" : 11,
                        "path" : "translation"
                    }
                }
            ],
            "name" : "Small SphereAction_Small Sphere.001",
            "samplers" : [
                {
                    "input" : 30,
                    "interpolation" : "LINEAR",
                    "output" : 34
                }
            ]
        }
    ],
    "materials" : [
        {
            "doubleSided" : true,
            "name" : "Material.001",
            "pbrMetallicRoughness" : {
                "baseColorFactor" : [
                    0,
                    0.3864292502403259,
                    0.40724027156829834,
                    1
                ],
                "metallicFactor" : 0,
                "roughnessFactor" : 0.30000001192092896
            }
        },
        {
            "doubleSided" : true,
            "extensions" : {
                "KHR_materials_transmission" : {
                    "transmissionFactor" : 1
                }
            },
            "name" : "Material.012",
            "pbrMetallicRoughness" : {
                "baseColorFactor" : [
                    1,
                    0.049706317484378815,
                    0,
                    1
                ],
                "metallicFactor" : 0,
                "roughnessFactor" : 0
            }
        },
        {
            "doubleSided" : true,
            "name" : "Material.003",
            "pbrMetallicRoughness" : {
                "baseColorFactor" : [
                    0.005181109998375177,
                    0.048171598464250565,
                    0.5906187295913696,
                    1
                ],
                "metallicFactor" : 0,
                "roughnessFactor" : 0.5
            }
        },
        {
            "doubleSided" : true,
            "name" : "Material.006",
            "pbrMetallicRoughness" : {
                "baseColorFactor" : [
                    0.0006068373913876712,
                    0.2462013065814972,
                    0.03688950836658478,
                    1
                ],
                "metallicFactor" : 0,
                "roughnessFactor" : 0.30000001192092896
            }
        },
        {
            "doubleSided" : true,
            "name" : "Material.009",
            "pbrMetallicRoughness" : {
                "baseColorFactor" : [
                    1,
                    0.38132572174072266,
                    0,
                    1
                ],
                "metallicFactor" : 0,
                "roughnessFactor" : 0.30000001192092896
            }
        },
        {
            "doubleSided" : true,
            "name" : "Yellow Gradient.001",
            "pbrMetallicRoughness" : {
                "baseColorFactor" : [
                    0.9473066926002502,
                    0,
                    0.01850024051964283,
                    1
                ],
                "metallicFactor" : 0,
                "roughnessFactor" : 0.5
            }
        },
        {
            "doubleSided" : true,
            "name" : "Material.011",
            "pbrMetallicRoughness" : {
                "baseColorFactor" : [
                    0,
                    0.0284259133040905,
                    0.3005436956882477,
                    1
                ],
                "metallicFactor" : 0,
                "roughnessFactor" : 0.4000000059604645
            }
        }
    ],
    "meshes" : [
        {
            "name" : "Torus",
            "primitives" : [
                {
                    "attributes" : {
                        "POSITION" : 0,
                        "NORMAL" : 1,
                        "TEXCOORD_0" : 2
                    },
                    "indices" : 3,
                    "material" : 0
                }
            ]
        },
        {
            "name" : "Sphere.004",
            "primitives" : [
                {
                    "attributes" : {
                        "POSITION" : 4,
                        "NORMAL" : 5,
                        "TEXCOORD_0" : 6
                    },
                    "indices" : 7,
                    "material" : 1
                }
            ]
        },
        {
            "name" : "Cylinder",
            "primitives" : [
                {
                    "attributes" : {
                        "POSITION" : 8,
                        "NORMAL" : 9,
                        "TEXCOORD_0" : 10
                    },
                    "indices" : 11,
                    "material" : 2
                }
            ]
        },
        {
            "name" : "Icosphere.002",
            "primitives" : [
                {
                    "attributes" : {
                        "POSITION" : 12,
                        "NORMAL" : 13,
                        "TEXCOORD_0" : 14
                    },
                    "indices" : 15,
                    "material" : 3
                }
            ]
        },
        {
            "name" : "Cube",
            "primitives" : [
                {
                    "attributes" : {
                        "POSITION" : 16,
                        "NORMAL" : 17,
                        "TEXCOORD_0" : 18
                    },
                    "indices" : 19,
                    "material" : 4
                }
            ]
        },
        {
            "name" : "Icosphere",
            "primitives" : [
                {
                    "attributes" : {
                        "POSITION" : 20,
                        "NORMAL" : 21,
                        "TEXCOORD_0" : 22
                    },
                    "indices" : 23,
                    "material" : 5
                }
            ]
        },
        {
            "name" : "Icosphere.001",
            "primitives" : [
                {
                    "attributes" : {
                        "POSITION" : 24,
                        "NORMAL" : 25,
                        "TEXCOORD_0" : 26
                    },
                    "indices" : 15,
                    "material" : 6
                }
            ]
        }
    ],
    "accessors" : [
        {
            "bufferView" : 0,
            "componentType" : 5126,
            "count" : 413,
            "max" : [
                1.2485594749450684,
                0.25,
                0
            ],
            "min" : [
                -1.2485593557357788,
                -0.25,
                -1.25
            ],
            "type" : "VEC3"
        },
        {
            "bufferView" : 1,
            "componentType" : 5126,
            "count" : 413,
            "type" : "VEC3"
        },
        {
            "bufferView" : 2,
            "componentType" : 5126,
            "count" : 413,
            "type" : "VEC2"
        },
        {
            "bufferView" : 3,
            "componentType" : 5123,
            "count" : 2220,
            "type" : "SCALAR"
        },
        {
            "bufferView" : 4,
            "componentType" : 5126,
            "count" : 2077,
            "max" : [
                0.8285194039344788,
                0.2794109582901001,
                0.8285192251205444
            ],
            "min" : [
                -0.8285191059112549,
                0,
                -0.8285196423530579
            ],
            "type" : "VEC3"
        },
        {
            "bufferView" : 5,
            "componentType" : 5126,
            "count" : 2077,
            "type" : "VEC3"
        },
        {
            "bufferView" : 6,
            "componentType" : 5126,
            "count" : 2077,
            "type" : "VEC2"
        },
        {
            "bufferView" : 7,
            "componentType" : 5123,
            "count" : 11520,
            "type" : "SCALAR"
        },
        {
            "bufferView" : 8,
            "componentType" : 5126,
            "count" : 566,
            "max" : [
                0.9865126013755798,
                2,
                0.9865126013755798
            ],
            "min" : [
                -0.9865126013755798,
                0,
                -0.9865126013755798
            ],
            "type" : "VEC3"
        },
        {
            "bufferView" : 9,
            "componentType" : 5126,
            "count" : 566,
            "type" : "VEC3"
        },
        {
            "bufferView" : 10,
            "componentType" : 5126,
            "count" : 566,
            "type" : "VEC2"
        },
        {
            "bufferView" : 11,
            "componentType" : 5123,
            "count" : 1716,
            "type" : "SCALAR"
        },
        {
            "bufferView" : 12,
            "componentType" : 5126,
            "count" : 205,
            "max" : [
                1.000000238418579,
                2,
                0.9999999403953552
            ],
            "min" : [
                -0.9999997019767761,
                0,
                -0.9999999403953552
            ],
            "type" : "VEC3"
        },
        {
            "bufferView" : 13,
            "componentType" : 5126,
            "count" : 205,
            "type" : "VEC3"
        },
        {
            "bufferView" : 14,
            "componentType" : 5126,
            "count" : 205,
            "type" : "VEC2"
        },
        {
            "bufferView" : 15,
            "componentType" : 5123,
            "count" : 960,
            "type" : "SCALAR"
        },
        {
            "bufferView" : 16,
            "componentType" : 5126,
            "count" : 188,
            "max" : [
                1,
                2,
                1
            ],
            "min" : [
                -1,
                0,
                -1
            ],
            "type" : "VEC3"
        },
        {
            "bufferView" : 17,
            "componentType" : 5126,
            "count" : 188,
            "type" : "VEC3"
        },
        {
            "bufferView" : 18,
            "componentType" : 5126,
            "count" : 188,
            "type" : "VEC2"
        },
        {
            "bufferView" : 19,
            "componentType" : 5123,
            "count" : 900,
            "type" : "SCALAR"
        },
        {
            "bufferView" : 20,
            "componentType" : 5126,
            "count" : 729,
            "max" : [
                1.000000238418579,
                2,
                1
            ],
            "min" : [
                -0.9999997019767761,
                0,
                -0.9999999403953552
            ],
            "type" : "VEC3"
        },
        {
            "bufferView" : 21,
            "componentType" : 5126,
            "count" : 729,
            "type" : "VEC3"
        },
        {
            "bufferView" : 22,
            "componentType" : 5126,
            "count" : 729,
            "type" : "VEC2"
        },
        {
            "bufferView" : 23,
            "componentType" : 5123,
            "count" : 3840,
            "type" : "SCALAR"
        },
        {
            "bufferView" : 24,
            "componentType" : 5126,
            "count" : 205,
            "max" : [
                1.000000238418579,
                2,
                0.9999999403953552
            ],
            "min" : [
                -0.9999997019767761,
                0,
                -0.9999999403953552
            ],
            "type" : "VEC3"
        },
        {
            "bufferView" : 25,
            "componentType" : 5126,
            "count" : 205,
            "type" : "VEC3"
        },
        {
            "bufferView" : 26,
            "componentType" : 5126,
            "count" : 205,
            "type" : "VEC2"
        },
        {
            "bufferView" : 27,
            "componentType" : 5126,
            "count" : 17,
            "max" : [
                0.6666666666666666
            ],
            "min" : [
                0
            ],
            "type" : "SCALAR"
        },
        {
            "bufferView" : 28,
            "componentType" : 5126,
            "count" : 17,
            "type" : "VEC3"
        },
        {
            "bufferView" : 29,
            "componentType" : 5126,
            "count" : 17,
            "type" : "VEC3"
        },
        {
            "bufferView" : 30,
            "componentType" : 5126,
            "count" : 73,
            "max" : [
                3
            ],
            "min" : [
                0
            ],
            "type" : "SCALAR"
        },
        {
            "bufferView" : 31,
            "componentType" : 5126,
            "count" : 73,
            "type" : "VEC3"
        },
        {
            "bufferView" : 32,
            "componentType" : 5126,
            "count" : 73,
            "type" : "VEC3"
        },
        {
            "bufferView" : 33,
            "componentType" : 5126,
            "count" : 73,
            "type" : "VEC3"
        },
        {
            "bufferView" : 34,
            "componentType" : 5126,
            "count" : 73,
            "type" : "VEC3"
        }
    ],
    "bufferViews" : [
        {
            "buffer" : 0,
            "byteLength" : 4956,
            "byteOffset" : 0
        },
        {
            "buffer" : 0,
            "byteLength" : 4956,
            "byteOffset" : 4956
        },
        {
            "buffer" : 0,
            "byteLength" : 3304,
            "byteOffset" : 9912
        },
        {
            "buffer" : 0,
            "byteLength" : 4440,
            "byteOffset" : 13216
        },
        {
            "buffer" : 0,
            "byteLength" : 24924,
            "byteOffset" : 17656
        },
        {
            "buffer" : 0,
            "byteLength" : 24924,
            "byteOffset" : 42580
        },
        {
            "buffer" : 0,
            "byteLength" : 16616,
            "byteOffset" : 67504
        },
        {
            "buffer" : 0,
            "byteLength" : 23040,
            "byteOffset" : 84120
        },
        {
            "buffer" : 0,
            "byteLength" : 6792,
            "byteOffset" : 107160
        },
        {
            "buffer" : 0,
            "byteLength" : 6792,
            "byteOffset" : 113952
        },
        {
            "buffer" : 0,
            "byteLength" : 4528,
            "byteOffset" : 120744
        },
        {
            "buffer" : 0,
            "byteLength" : 3432,
            "byteOffset" : 125272
        },
        {
            "buffer" : 0,
            "byteLength" : 2460,
            "byteOffset" : 128704
        },
        {
            "buffer" : 0,
            "byteLength" : 2460,
            "byteOffset" : 131164
        },
        {
            "buffer" : 0,
            "byteLength" : 1640,
            "byteOffset" : 133624
        },
        {
            "buffer" : 0,
            "byteLength" : 1920,
            "byteOffset" : 135264
        },
        {
            "buffer" : 0,
            "byteLength" : 2256,
            "byteOffset" : 137184
        },
        {
            "buffer" : 0,
            "byteLength" : 2256,
            "byteOffset" : 139440
        },
        {
            "buffer" : 0,
            "byteLength" : 1504,
            "byteOffset" : 141696
        },
        {
            "buffer" : 0,
            "byteLength" : 1800,
            "byteOffset" : 143200
        },
        {
            "buffer" : 0,
            "byteLength" : 8748,
            "byteOffset" : 145000
        },
        {
            "buffer" : 0,
            "byteLength" : 8748,
            "byteOffset" : 153748
        },
        {
            "buffer" : 0,
            "byteLength" : 5832,
            "byteOffset" : 162496
        },
        {
            "buffer" : 0,
            "byteLength" : 7680,
            "byteOffset" : 168328
        },
        {
            "buffer" : 0,
            "byteLength" : 2460,
            "byteOffset" : 176008
        },
        {
            "buffer" : 0,
            "byteLength" : 2460,
            "byteOffset" : 178468
        },
        {
            "buffer" : 0,
            "byteLength" : 1640,
            "byteOffset" : 180928
        },
        {
            "buffer" : 0,
            "byteLength" : 68,
            "byteOffset" : 182568
        },
        {
            "buffer" : 0,
            "byteLength" : 204,
            "byteOffset" : 182636
        },
        {
            "buffer" : 0,
            "byteLength" : 204,
            "byteOffset" : 182840
        },
        {
            "buffer" : 0,
            "byteLength" : 292,
            "byteOffset" : 183044
        },
        {
            "buffer" : 0,
            "byteLength" : 876,
            "byteOffset" : 183336
        },
        {
            "buffer" : 0,
            "byteLength" : 876,
            "byteOffset" : 184212
        },
        {
            "buffer" : 0,
            "byteLength" : 876,
            "byteOffset" : 185088
        },
        {
            "buffer" : 0,
            "byteLength" : 876,
            "byteOffset" : 185964
        }
    ],
    "buffers" : [
        {
            "byteLength" : 186840,
            "uri" : "data:application/octet-stream;base64,"
        }
    ]
}
